<svg xmlns="http://www.w3.org/2000/svg" width="400" height="320" viewBox="0 0 400 320" role="img" aria-label="广州珠江夜色">
  <defs>
    <linearGradient id="gz" x1="0%" y1="100%" x2="100%" y2="0%">
      <stop offset="0%" stop-color="#1a4a6e"/>
      <stop offset="40%" stop-color="#2d5a82"/>
      <stop offset="100%" stop-color="#f4c14b"/>
    </linearGradient>
    <linearGradient id="tw" x1="50%" y1="0%" x2="50%" y2="100%">
      <stop offset="0%" stop-color="#f4c14b" stop-opacity="0.95"/>
      <stop offset="100%" stop-color="#f4c14b" stop-opacity="0"/>
    </linearGradient>
  </defs>
  <rect width="400" height="320" fill="url(#gz)"/>
  <ellipse cx="200" cy="268" rx="180" ry="40" fill="#f4c14b" opacity="0.12"/>
  <g fill="#0f2f4a" opacity="0.9">
    <path d="M0 240 L400 240 L400 320 L0 320 Z"/>
    <rect x="168" y="72" width="64" height="168" rx="3"/>
    <rect x="178" y="56" width="44" height="16" rx="2" fill="#f4c14b" opacity="0.85"/>
  </g>
  <rect x="176" y="88" width="8" height="140" fill="url(#tw)" opacity="0.4"/>
  <g fill="#e8f4ff" opacity="0.25">
    <rect x="40" y="160" width="18" height="80" rx="1"/>
    <rect x="68" y="140" width="22" height="100" rx="1"/>
    <rect x="280" y="150" width="20" height="90" rx="1"/>
    <rect x="310" y="128" width="26" height="112" rx="1"/>
    <rect x="348" y="168" width="24" height="72" rx="1"/>
  </g>
</svg>
